<svg viewBox="0 0 192 42" xmlns="http://www.w3.org/2000/svg" data-logo="logo">
        <g transform="translate(0, 1) rotate(0)" id="logogram" style="opacity: 1;"><path fill="#326D22" d="M21.3474 0.349945L46.7544 25.7266V39.3499H34.8978V30.624L16.4444 12.1924H12.611V39.3499H0.754395V0.349945H21.3474ZM34.8978 13.8842V0.349945H46.7544V13.8842H34.8978Z"></path></g>
        <g transform="translate(53, 8)" id="logotype" style="opacity: 1;"><path d="M16.73 26.38L16.73 26.38Q13.86 26.38 11.76 25.14Q9.66 23.90 8.52 21.68Q7.38 19.47 7.38 16.53L7.38 16.53Q7.38 13.56 8.52 11.35Q9.66 9.13 11.76 7.89Q13.86 6.65 16.73 6.65L16.73 6.65Q19.62 6.65 21.71 7.89Q23.81 9.13 24.94 11.35Q26.08 13.56 26.08 16.53L26.08 16.53Q26.08 19.47 24.94 21.68Q23.81 23.90 21.71 25.14Q19.62 26.38 16.73 26.38ZM16.73 22.34L16.73 22.34Q18.10 22.34 19.02 21.58Q19.95 20.82 20.41 19.50Q20.87 18.17 20.87 16.52L20.87 16.52Q20.87 14.82 20.41 13.51Q19.95 12.19 19.02 11.44Q18.10 10.69 16.73 10.69L16.73 10.69Q15.37 10.69 14.45 11.44Q13.54 12.19 13.08 13.51Q12.61 14.82 12.61 16.52L12.61 16.52Q12.61 18.17 13.08 19.50Q13.54 20.82 14.45 21.58Q15.37 22.34 16.73 22.34ZM34.37 26.32L34.37 26.32Q32.16 26.32 30.39 25.19Q28.62 24.05 27.60 21.86Q26.57 19.66 26.57 16.48L26.57 16.48Q26.57 13.22 27.63 11.03Q28.69 8.84 30.45 7.75Q32.21 6.65 34.33 6.65L34.33 6.65Q35.96 6.65 37.03 7.20Q38.11 7.75 38.78 8.55Q39.44 9.35 39.77 10.11L39.77 10.11L39.94 10.11L39.94 0.54L45.07 0.54L45.07 26L40.02 26L40.02 22.94L39.77 22.94Q39.43 23.71 38.75 24.49Q38.08 25.27 37.00 25.79Q35.92 26.32 34.37 26.32ZM35.94 22.21L35.94 22.21Q37.24 22.21 38.16 21.49Q39.08 20.77 39.56 19.48Q40.04 18.19 40.04 16.46L40.04 16.46Q40.04 14.72 39.57 13.45Q39.10 12.17 38.18 11.47Q37.26 10.76 35.94 10.76L35.94 10.76Q34.59 10.76 33.67 11.49Q32.76 12.23 32.30 13.51Q31.84 14.79 31.84 16.46L31.84 16.46Q31.84 18.14 32.31 19.44Q32.78 20.74 33.69 21.47Q34.61 22.21 35.94 22.21ZM55.80 26.38L55.80 26.38Q52.87 26.38 50.75 25.18Q48.64 23.98 47.50 21.78Q46.36 19.57 46.36 16.55L46.36 16.55Q46.36 13.59 47.49 11.37Q48.62 9.15 50.69 7.90Q52.75 6.65 55.54 6.65L55.54 6.65Q57.42 6.65 59.04 7.25Q60.67 7.85 61.90 9.06Q63.13 10.26 63.82 12.07Q64.51 13.88 64.51 16.34L64.51 16.34L64.51 17.78L48.46 17.78L48.46 14.57L62.00 14.57L59.61 15.42Q59.61 13.93 59.15 12.83Q58.70 11.73 57.80 11.12Q56.91 10.52 55.57 10.52L55.57 10.52Q54.26 10.52 53.33 11.13Q52.39 11.75 51.92 12.80Q51.44 13.85 51.44 15.20L51.44 15.20L51.44 17.47Q51.44 19.13 51.99 20.26Q52.55 21.39 53.55 21.95Q54.55 22.51 55.88 22.51L55.88 22.51Q56.79 22.51 57.52 22.26Q58.26 22.00 58.78 21.50Q59.30 20.99 59.57 20.26L59.57 20.26L64.22 21.13Q63.76 22.70 62.61 23.89Q61.47 25.08 59.75 25.73Q58.03 26.38 55.80 26.38ZM76.44 26.32L76.44 26.32Q74.88 26.32 73.81 25.79Q72.73 25.27 72.05 24.49Q71.38 23.71 71.02 22.94L71.02 22.94L70.78 22.94L70.78 26L65.74 26L65.74 0.54L70.87 0.54L70.87 10.11L71.02 10.11Q71.38 9.35 72.04 8.55Q72.70 7.75 73.77 7.20Q74.85 6.65 76.47 6.65L76.47 6.65Q78.59 6.65 80.35 7.75Q82.11 8.84 83.16 11.03Q84.21 13.22 84.21 16.48L84.21 16.48Q84.21 19.66 83.19 21.86Q82.16 24.05 80.40 25.19Q78.64 26.32 76.44 26.32ZM74.87 22.21L74.87 22.21Q76.20 22.21 77.11 21.47Q78.03 20.74 78.50 19.44Q78.97 18.14 78.97 16.46L78.97 16.46Q78.97 14.79 78.50 13.51Q78.03 12.23 77.12 11.49Q76.22 10.76 74.87 10.76L74.87 10.76Q73.55 10.76 72.63 11.47Q71.70 12.17 71.23 13.45Q70.75 14.72 70.75 16.46L70.75 16.46Q70.75 18.19 71.23 19.48Q71.72 20.77 72.64 21.49Q73.57 22.21 74.87 22.21ZM90.86 26.38L90.86 26.38Q89.05 26.38 87.60 25.74Q86.16 25.09 85.33 23.82Q84.50 22.55 84.50 20.65L84.50 20.65Q84.50 19.06 85.09 17.98Q85.68 16.91 86.70 16.26Q87.72 15.61 89.01 15.27Q90.30 14.93 91.71 14.79L91.71 14.79Q93.37 14.62 94.39 14.47Q95.41 14.33 95.88 14.01Q96.35 13.70 96.35 13.08L96.35 13.08L96.35 12.99Q96.35 12.17 96.00 11.61Q95.66 11.05 95.00 10.75Q94.33 10.45 93.36 10.45L93.36 10.45Q92.36 10.45 91.63 10.75Q90.89 11.05 90.43 11.54Q89.97 12.04 89.75 12.65L89.75 12.65L85.05 11.87Q85.55 10.21 86.69 9.05Q87.84 7.88 89.54 7.27Q91.24 6.65 93.36 6.65L93.36 6.65Q94.91 6.65 96.36 7.02Q97.82 7.39 98.97 8.16Q100.12 8.93 100.80 10.16Q101.47 11.39 101.47 13.13L101.47 13.13L101.47 26L96.62 26L96.62 23.35L96.45 23.35Q95.99 24.24 95.22 24.91Q94.45 25.59 93.36 25.98Q92.28 26.38 90.86 26.38ZM92.31 22.77L92.31 22.77Q93.53 22.77 94.44 22.29Q95.35 21.81 95.87 20.99Q96.38 20.17 96.38 19.16L96.38 19.16L96.38 17.10Q96.16 17.27 95.70 17.40Q95.23 17.54 94.67 17.64Q94.11 17.75 93.56 17.83Q93.01 17.92 92.59 17.97L92.59 17.97Q91.65 18.10 90.93 18.41Q90.21 18.72 89.82 19.22Q89.42 19.73 89.42 20.51L89.42 20.51Q89.42 21.25 89.80 21.75Q90.18 22.26 90.82 22.51Q91.46 22.77 92.31 22.77ZM111.16 26.38L111.16 26.38Q108.85 26.38 107.08 25.72Q105.30 25.06 104.17 23.80Q103.04 22.55 102.72 20.77L102.72 20.77L107.49 19.95Q107.86 21.28 108.80 21.95Q109.74 22.62 111.31 22.62L111.31 22.62Q112.77 22.62 113.62 22.06Q114.48 21.51 114.48 20.65L114.48 20.65Q114.48 19.90 113.87 19.42Q113.26 18.94 112.02 18.69L112.02 18.69L108.72 18.00Q105.95 17.44 104.58 16.08Q103.21 14.72 103.21 12.58L103.21 12.58Q103.21 10.74 104.22 9.41Q105.23 8.09 107.02 7.37Q108.82 6.65 111.25 6.65L111.25 6.65Q113.50 6.65 115.16 7.28Q116.82 7.90 117.84 9.05Q118.87 10.19 119.21 11.75L119.21 11.75L114.66 12.55Q114.37 11.58 113.54 10.95Q112.72 10.33 111.31 10.33L111.31 10.33Q110.05 10.33 109.20 10.86Q108.34 11.39 108.34 12.26L108.34 12.26Q108.34 12.99 108.90 13.49Q109.45 13.99 110.80 14.26L110.80 14.26L114.24 14.94Q117.01 15.51 118.36 16.78Q119.71 18.05 119.71 20.10L119.71 20.10Q119.71 21.98 118.61 23.39Q117.52 24.80 115.60 25.59Q113.67 26.38 111.16 26.38ZM129.53 26.38L129.53 26.38Q126.61 26.38 124.49 25.18Q122.37 23.98 121.23 21.78Q120.10 19.57 120.10 16.55L120.10 16.55Q120.10 13.59 121.22 11.37Q122.35 9.15 124.42 7.90Q126.49 6.65 129.27 6.65L129.27 6.65Q131.15 6.65 132.78 7.25Q134.40 7.85 135.63 9.06Q136.86 10.26 137.55 12.07Q138.25 13.88 138.25 16.34L138.25 16.34L138.25 17.78L122.20 17.78L122.20 14.57L135.73 14.57L133.34 15.42Q133.34 13.93 132.89 12.83Q132.44 11.73 131.54 11.12Q130.64 10.52 129.31 10.52L129.31 10.52Q127.99 10.52 127.06 11.13Q126.13 11.75 125.65 12.80Q125.17 13.85 125.17 15.20L125.17 15.20L125.17 17.47Q125.17 19.13 125.73 20.26Q126.28 21.39 127.28 21.95Q128.28 22.51 129.62 22.51L129.62 22.51Q130.52 22.51 131.26 22.26Q131.99 22.00 132.51 21.50Q133.03 20.99 133.31 20.26L133.31 20.26L137.96 21.13Q137.49 22.70 136.35 23.89Q135.20 25.08 133.49 25.73Q131.77 26.38 129.53 26.38Z" fill="#376d41"></path></g>
        
      </svg>